<?xml version="1.0" standalone="no"?>
<!DOCTYPE svg PUBLIC "-//W3C//DTD SVG 20010904//EN"
 "http://www.w3.org/TR/2001/REC-SVG-20010904/DTD/svg10.dtd">
<svg version="1.0" xmlns="http://www.w3.org/2000/svg"
 width="1138.000000pt" height="451.000000pt" viewBox="0 0 1138.000000 451.000000"
 preserveAspectRatio="xMidYMid meet">

<g transform="translate(0.000000,451.000000) scale(0.100000,-0.100000)"
fill="#000000" stroke="none">
<path d="M2168 3613 c-161 -85 -330 -174 -375 -199 l-83 -45 0 -520 c0 -491
-1 -520 -17 -515 -18 5 -342 59 -423 70 -41 6 -57 1 -148 -43 l-102 -50 0
-119 0 -118 -75 -33 -75 -33 0 -757 c0 -416 0 -763 0 -772 0 -20 -64 -31 -127
-22 l-42 6 -3 56 c-3 50 -6 56 -26 59 -13 2 -34 -4 -47 -12 -19 -13 -23 -22
-19 -44 9 -49 -14 -66 -97 -70 -77 -4 -109 -20 -109 -52 0 -9 8 -24 18 -33 17
-16 175 -17 2064 -17 2236 0 2071 -4 2071 56 -1 39 -15 47 -94 50 -40 2 -74 5
-75 7 -10 10 -12 119 -13 694 l-1 621 -52 12 c-29 6 -74 16 -100 23 l-48 11 0
222 0 223 -57 11 c-32 7 -61 17 -65 24 -4 6 -8 140 -8 298 l0 287 -32 9 c-18
5 -137 35 -265 67 l-232 59 -158 -72 c-87 -40 -164 -72 -170 -72 -10 0 -13 82
-15 357 l-3 357 -30 8 c-28 8 -298 74 -557 137 l-117 28 -293 -154z m662 -53
c96 -22 190 -45 208 -51 l32 -11 0 -145 0 -145 -42 7 c-24 4 -142 27 -263 51
-121 24 -221 44 -222 44 -2 0 -3 72 -3 159 l0 159 58 -14 c31 -7 136 -32 232
-54z m-392 -97 l-3 -158 -285 -136 c-157 -75 -295 -139 -307 -143 l-23 -7 0
143 0 143 303 156 c166 86 305 157 310 158 4 0 6 -70 5 -156z m302 -307 c96
-18 210 -39 253 -46 l77 -13 0 -138 c0 -97 -3 -139 -11 -139 -7 0 -55 7 -108
15 -125 18 -390 55 -402 55 -5 0 -9 21 -9 46 0 44 1 45 28 40 29 -6 218 -36
227 -36 13 0 36 51 30 70 -10 30 -34 39 -162 60 -64 11 -117 21 -118 22 -2 2
-5 24 -7 51 -4 38 -2 47 11 47 9 0 95 -15 191 -34z m-300 -31 c0 -39 -4 -46
-30 -60 -16 -8 -31 -15 -35 -15 -3 0 -5 20 -5 45 0 38 4 46 28 59 40 22 42 20
42 -29z m-160 -1075 l0 -1060 -35 0 -35 0 0 1043 0 1042 28 17 c15 10 30 18
35 18 4 0 7 -477 7 -1060z m-230 -50 c0 -607 -4 -990 -9 -990 -5 0 -21 4 -35
10 l-26 10 0 964 0 965 22 15 c50 36 48 83 48 -974z m390 917 c0 -40 -3 -45
-35 -60 l-35 -17 0 45 c0 38 4 46 28 59 39 22 42 20 42 -27z m-550 -942 c0
-582 -4 -936 -10 -940 -5 -3 -20 -3 -34 1 -25 6 -25 6 -28 147 -2 78 -1 494 2
925 l5 784 25 13 c14 7 28 11 32 9 5 -3 8 -425 8 -939z m2034 824 c3 -2 8
-111 12 -242 8 -270 17 -249 -87 -222 l-59 16 -98 -40 -97 -39 -5 302 c-3 165
-4 304 -3 307 3 7 328 -73 337 -82z m-444 -244 l0 -326 -46 -20 c-26 -11 -50
-17 -53 -13 -3 3 -7 147 -9 319 l-3 314 48 25 c26 14 51 25 56 26 4 0 7 -146
7 -325z m-205 203 c3 -18 4 -161 3 -318 l-3 -285 -25 -12 c-14 -6 -37 -14 -51
-18 l-27 -7 0 317 0 317 41 19 c55 24 55 24 62 -13z m-485 -13 c102 -14 205
-29 230 -33 l45 -7 3 -113 c2 -83 -1 -112 -9 -112 -13 0 -430 56 -486 66 l-33
5 0 116 0 115 33 -6 c17 -3 115 -17 217 -31z m-350 -90 l0 -104 -30 -16 c-16
-8 -31 -15 -35 -15 -3 0 -5 47 -5 104 0 104 0 105 28 119 15 8 30 15 35 16 4
1 7 -46 7 -104z m370 -255 c118 -17 225 -32 238 -35 22 -5 22 -8 22 -145 0
-76 -4 -141 -8 -144 -8 -5 -172 12 -327 33 -38 6 -98 13 -132 16 l-61 7 -4 40
c-2 22 -1 41 2 42 3 2 63 -4 134 -12 124 -15 129 -15 142 3 19 26 18 51 -4 73
-13 13 -47 22 -123 31 -158 19 -149 14 -149 77 0 53 0 53 28 49 15 -3 124 -19
242 -35z m-370 -125 c0 -142 -1 -155 -19 -165 -49 -26 -51 -21 -51 143 l0 153
28 11 c15 6 30 11 35 12 4 1 7 -69 7 -154z m-963 -32 l233 -38 0 -67 c0 -64
-1 -68 -23 -68 -22 0 -183 22 -399 55 -77 11 -113 13 -127 5 -32 -17 -36 -12
-36 42 l0 52 54 28 c29 15 56 28 60 28 3 0 111 -16 238 -37z m2483 -46 l95
-22 7 -390 c4 -215 7 -480 5 -590 l-2 -200 -60 3 c-33 1 -82 8 -110 15 l-50
13 -3 597 c-2 474 0 597 10 597 7 -1 56 -11 108 -23z m-220 -586 l0 -599 -62
-21 c-34 -12 -68 -21 -75 -21 -11 0 -13 109 -11 597 l3 596 65 23 c36 12 68
23 73 23 4 1 7 -269 7 -598z m-260 425 l0 -74 -37 -13 c-21 -6 -87 -32 -146
-56 -60 -23 -113 -43 -118 -43 -5 0 -9 32 -9 70 0 58 3 72 18 77 9 3 78 30
152 59 74 29 136 54 138 54 1 0 2 -33 2 -74z m-2121 -37 c86 -11 197 -27 246
-35 50 -7 93 -14 98 -14 4 0 7 -32 7 -70 0 -68 -1 -70 -22 -65 -13 3 -113 16
-223 31 -110 14 -219 28 -242 31 -35 5 -58 -1 -136 -36 -52 -22 -97 -41 -101
-41 -3 0 -6 29 -6 65 0 56 3 66 23 76 30 17 180 78 191 79 4 0 79 -9 165 -21z
m1501 -15 c102 -13 191 -26 198 -29 9 -3 12 -39 12 -133 0 -71 -2 -131 -5
-134 -2 -2 -114 8 -247 24 -134 15 -250 28 -259 28 -11 0 -18 12 -22 37 -4 20
-4 39 -2 42 3 2 63 -3 133 -12 l127 -17 18 21 c34 41 4 83 -66 93 -23 3 -79
10 -124 17 l-83 11 0 46 0 45 68 -7 c37 -4 150 -18 252 -32z m-420 -14 c0 -34
-4 -42 -30 -55 -40 -21 -40 -20 -40 24 0 33 5 42 28 54 40 22 42 21 42 -23z
m1040 -189 l0 -69 -72 -28 c-40 -15 -107 -40 -148 -55 -41 -16 -77 -26 -81
-21 -4 4 -5 34 -2 68 l5 60 128 48 c70 27 134 52 141 57 26 16 29 9 29 -60z
m-1040 -10 c0 -38 -4 -50 -17 -54 -10 -2 -26 -8 -35 -12 -16 -6 -18 -1 -18 37
0 40 3 46 33 61 17 8 33 16 35 16 1 1 2 -21 2 -48z m-1035 -31 c83 -10 182
-24 220 -29 39 -6 73 -11 78 -11 11 0 9 -130 -2 -130 -6 0 -61 6 -123 14 -62
8 -165 20 -228 26 -63 7 -122 13 -130 14 -11 1 -16 18 -18 69 l-3 67 28 0 c15
0 96 -9 178 -20z m-305 -85 l0 -65 -37 -15 c-20 -9 -47 -18 -60 -22 -24 -5
-24 -4 -21 58 3 63 4 64 43 86 67 38 75 33 75 -42z m3160 38 c3 -3 5 -279 5
-615 0 -481 -3 -612 -13 -615 -6 -3 -28 -2 -47 1 l-35 7 0 620 0 619 43 -6
c23 -4 44 -9 47 -11z m-1550 -78 c69 -9 168 -20 220 -25 155 -17 140 -3 140
-130 l0 -110 -27 0 c-25 0 -343 32 -460 46 l-43 5 0 115 c0 133 -21 121 170
99z m-270 -115 c0 -109 0 -111 -26 -120 -14 -6 -30 -10 -35 -10 -5 0 -9 48 -9
109 l0 109 28 10 c15 6 30 11 35 11 4 1 7 -49 7 -109z m1040 21 l0 -69 -40
-16 c-68 -27 -71 -25 -68 50 l3 66 45 19 c25 10 48 18 53 18 4 1 7 -30 7 -68z
m-2045 -31 c94 -12 193 -24 220 -28 l50 -7 3 -69 3 -69 -48 7 c-86 12 -401 46
-441 48 -24 1 -61 -9 -96 -26 -56 -27 -135 -57 -137 -53 -6 23 -7 125 -2 133
5 6 48 25 97 43 49 17 96 36 105 41 9 6 30 8 46 6 17 -3 107 -14 200 -26z
m1841 -497 l-1 -528 -29 -3 c-15 -2 -39 -1 -53 3 l-25 6 4 504 c3 278 8 508
12 512 9 9 65 31 82 32 9 1 11 -139 10 -526z m204 268 l0 -69 -47 -16 c-26 -9
-50 -16 -55 -16 -4 0 -8 31 -8 68 l0 68 43 16 c67 26 67 26 67 -51z m-675 -1
c110 -12 215 -24 233 -26 l32 -5 0 -149 c0 -113 -3 -150 -12 -150 -7 0 -83 7
-168 15 -85 8 -198 18 -250 22 l-95 8 -3 43 -3 42 36 0 c20 0 79 -5 132 -11
89 -10 98 -9 110 7 7 10 13 28 13 39 0 41 -28 53 -155 65 -66 7 -123 14 -127
16 -5 3 -8 30 -8 61 l0 55 33 -5 c17 -3 122 -15 232 -27z m-365 -141 c0 -134
-2 -150 -16 -145 -9 3 -24 6 -35 6 -18 0 -19 9 -19 134 l0 134 28 10 c15 6 30
11 35 11 4 1 7 -67 7 -150z m-986 116 c109 -14 212 -25 228 -25 l29 0 -3 -67
-3 -68 -45 3 c-25 2 -109 10 -188 18 -98 10 -149 11 -162 4 -27 -14 -34 -47
-16 -74 15 -24 25 -27 159 -42 31 -3 59 -10 62 -14 2 -4 -50 -24 -117 -45
l-121 -38 6 -208 6 -209 -24 -6 c-13 -3 -33 -3 -44 1 -21 6 -21 11 -21 401 l0
394 28 0 c15 0 117 -11 226 -25z m-354 -94 l0 -69 -49 -16 c-68 -22 -71 -21
-71 23 0 80 9 99 54 115 66 23 66 23 66 -53z m2378 -368 l-3 -308 -35 -3 c-66
-5 -65 -10 -68 280 -2 145 0 273 3 285 3 13 13 23 23 23 9 1 28 7 42 15 14 8
28 14 33 15 4 0 6 -138 5 -307z m-2378 -58 l0 -244 -35 -7 c-19 -3 -46 -3 -60
0 l-25 6 2 227 3 226 50 18 c28 10 53 18 58 18 4 1 7 -109 7 -244z m650 126
l0 -68 -147 -37 c-82 -21 -160 -41 -175 -46 -31 -10 -35 -2 -30 70 l4 48 111
32 c62 17 137 40 167 50 30 10 58 19 63 19 4 1 7 -30 7 -68z m2199 53 c53 -9
100 -20 105 -24 12 -11 12 -388 0 -400 -12 -12 -159 -16 -191 -6 -23 7 -23 8
-23 227 0 120 3 219 6 219 4 0 50 -7 103 -16z m-1816 -14 c122 -11 241 -22
265 -26 l43 -5 -3 -57 -3 -57 -57 -3 -58 -3 0 -54 0 -54 58 -3 57 -3 3 -72 c3
-86 4 -86 -128 -81 l-85 3 -3 131 -3 132 -31 6 c-17 3 -77 6 -134 6 l-104 0 0
-135 0 -135 -45 0 -45 0 0 215 0 215 26 0 c14 0 125 -9 247 -20z m1605 -62
l-3 -71 -70 -23 c-38 -13 -71 -24 -72 -24 -2 0 -3 33 -3 73 l0 72 68 21 c37
12 71 22 75 23 4 1 7 -31 5 -71z m-919 22 c124 -11 232 -22 239 -25 9 -3 12
-47 12 -174 l0 -169 -25 -4 c-14 -3 -36 -3 -50 0 -25 4 -25 6 -27 106 -1 118
-2 123 -8 129 -3 3 -74 8 -157 12 l-153 7 0 -125 c0 -73 -4 -128 -10 -132 -6
-3 -30 -3 -55 1 l-45 6 0 194 0 194 26 0 c15 0 128 -9 253 -20z m-1061 -275
l-2 -95 -121 -2 c-249 -5 -249 -5 -238 67 3 22 6 41 7 42 3 3 328 81 343 82
10 1 12 -23 11 -94z m352 -15 l0 -80 -30 0 -30 0 0 80 0 80 30 0 30 0 0 -80z
m1630 1 c0 -87 -3 -91 -68 -91 -75 0 -82 6 -82 70 l0 57 68 21 c37 11 70 21
75 21 4 1 7 -35 7 -78z m-907 49 c27 0 27 -1 27 -65 l0 -65 -50 0 -50 0 0 71
c0 69 1 71 23 65 12 -3 34 -6 50 -6z"/>
<path d="M2672 3423 l3 -57 48 -12 47 -12 0 58 c0 56 -1 58 -31 69 -64 22 -70
17 -67 -46z"/>
<path d="M2880 3381 l0 -58 39 -11 c65 -20 67 -19 61 45 l-5 57 -47 12 -48 12
0 -57z"/>
<path d="M2298 3449 c-37 -19 -38 -20 -38 -79 0 -33 2 -60 4 -60 2 0 24 12 50
26 46 26 46 26 46 80 0 61 -5 64 -62 33z"/>
<path d="M2113 3363 l-43 -24 0 -60 c0 -32 2 -59 4 -59 2 0 24 9 50 20 l46 21
0 59 c0 32 -3 61 -7 63 -5 2 -27 -7 -50 -20z"/>
<path d="M1928 3268 c-37 -21 -38 -23 -38 -80 l0 -58 45 22 45 22 0 58 c0 32
-3 58 -7 58 -5 0 -25 -10 -45 -22z"/>
<path d="M3690 2542 l0 -60 46 -7 c25 -3 47 -5 49 -3 1 2 5 29 8 61 5 49 3 57
-11 57 -9 0 -34 3 -54 6 l-38 7 0 -61z"/>
<path d="M2920 2221 c0 -46 1 -49 31 -55 57 -11 59 -10 59 43 0 52 -10 61 -67
61 -21 0 -23 -5 -23 -49z"/>
<path d="M2910 1080 c0 -45 2 -50 23 -50 12 0 32 -3 43 -6 18 -5 22 0 28 31
12 60 1 75 -50 75 l-44 0 0 -50z"/>
<path d="M3943 743 c-21 -4 -23 -10 -23 -58 0 -54 0 -54 34 -61 19 -3 39 -3
45 1 13 8 15 115 2 115 -5 0 -15 2 -23 4 -7 2 -23 1 -35 -1z"/>
<path d="M1470 3550 l0 -60 56 0 55 0 -3 60 -3 60 -52 0 -53 0 0 -60z"/>
<path d="M3521 3579 c-22 -13 -40 -37 -54 -70 -20 -48 -22 -49 -63 -49 -48 0
-74 -19 -74 -54 0 -13 8 -30 18 -39 16 -15 51 -17 289 -17 249 0 271 1 286 18
19 21 21 45 7 73 -9 16 -22 19 -90 19 l-80 0 -22 47 c-42 88 -139 120 -217 72z"/>
<path d="M1135 3451 c-48 -21 -63 -38 -80 -88 l-13 -38 -123 -10 c-118 -10
-124 -11 -138 -36 -13 -24 -13 -29 2 -53 l17 -26 351 0 c222 0 357 4 370 10
25 14 25 64 -1 90 -16 16 -33 20 -88 20 l-68 0 -24 53 c-20 41 -34 57 -70 75
-53 27 -82 27 -135 3z"/>
<path d="M8412 3360 c-66 -28 -37 -130 38 -130 26 0 70 43 70 68 0 46 -61 81
-108 62z"/>
<path d="M5030 2880 l0 -482 233 4 c213 4 237 6 291 27 106 42 166 130 166
245 0 104 -63 188 -165 223 l-48 16 29 15 c77 39 118 108 117 197 -1 105 -35
157 -133 204 -53 25 -62 26 -272 29 l-218 4 0 -482z m428 357 c99 -54 96 -201
-7 -261 -27 -16 -58 -20 -162 -24 l-129 -5 0 158 0 157 133 -4 c102 -3 139 -8
165 -21z m19 -402 c155 -46 162 -246 11 -309 -28 -12 -74 -16 -183 -16 l-145
0 0 170 0 170 133 0 c90 0 150 -5 184 -15z"/>
<path d="M7507 3179 c-57 -13 -94 -36 -114 -69 -15 -26 -22 -30 -43 -23 -14 4
-64 8 -111 8 -78 0 -90 -3 -135 -30 -30 -19 -60 -49 -79 -79 -26 -43 -30 -59
-30 -120 1 -76 16 -119 62 -168 l25 -26 -30 -16 c-39 -20 -62 -53 -62 -87 0
-41 9 -58 47 -83 l34 -23 -35 -21 c-74 -44 -96 -130 -53 -207 16 -30 37 -48
82 -70 57 -28 67 -30 180 -30 131 0 174 10 242 56 94 65 110 204 32 276 -41
38 -106 54 -257 62 -150 9 -172 17 -172 57 0 36 34 48 145 48 81 1 108 5 140
22 119 62 156 229 78 348 l-26 40 22 18 c13 9 45 20 72 24 l49 7 0 48 c0 53 0
53 -63 38z m-186 -175 c37 -19 69 -83 69 -139 0 -56 -32 -120 -69 -139 -65
-34 -158 -14 -197 42 -44 63 -21 196 40 233 38 23 115 25 157 3z m86 -593 c34
-16 43 -26 48 -54 8 -42 -9 -82 -45 -109 -52 -38 -216 -45 -282 -12 -67 34
-78 106 -24 160 l34 34 114 0 c89 0 122 -4 155 -19z"/>
<path d="M3730 3125 l0 -55 55 0 55 0 0 55 0 55 -55 0 -55 0 0 -55z"/>
<path d="M6090 3104 c-73 -15 -105 -29 -142 -62 -47 -42 -68 -85 -68 -137 l0
-35 54 0 53 0 6 38 c4 20 13 47 21 58 53 74 222 70 261 -7 8 -15 15 -55 15
-89 l0 -60 -57 0 c-181 -1 -325 -50 -365 -124 -36 -67 -25 -176 23 -231 84
-95 266 -84 382 23 l27 26 0 -52 0 -52 55 0 55 0 0 253 c0 328 -13 378 -113
426 -42 20 -158 34 -207 25z m200 -443 l0 -79 -42 -37 c-56 -49 -96 -65 -158
-65 -88 0 -130 40 -130 121 0 37 51 94 97 110 44 14 122 26 186 28 l47 1 0
-79z"/>
<path d="M6889 3100 c-63 -11 -101 -32 -142 -81 l-36 -41 -3 58 -3 59 -52 3
-53 3 0 -350 0 -351 55 0 55 0 0 244 0 243 48 45 c46 43 108 68 167 68 11 0
15 14 15 55 0 30 -1 54 -2 54 -2 -1 -24 -5 -49 -9z"/>
<path d="M7880 3104 c-73 -15 -105 -29 -142 -62 -47 -42 -68 -85 -68 -137 l0
-35 54 0 53 0 6 38 c4 20 13 47 21 58 53 74 222 70 261 -7 8 -15 15 -55 15
-89 l0 -60 -57 0 c-32 0 -89 -5 -128 -10 -181 -26 -256 -85 -257 -205 -1 -71
17 -118 57 -153 47 -42 96 -55 176 -50 71 5 136 34 192 86 l27 26 0 -52 0 -52
55 0 55 0 0 253 c0 329 -13 378 -114 427 -44 21 -154 34 -206 24z m200 -443
l0 -79 -42 -37 c-56 -49 -96 -65 -158 -65 -88 0 -130 40 -130 121 0 37 51 94
97 110 44 14 122 26 186 28 l47 1 0 -79z"/>
<path d="M8390 2750 l0 -350 55 0 55 0 0 350 0 350 -55 0 -55 0 0 -350z"/>
<path d="M8700 2750 l0 -350 55 0 55 0 0 247 0 246 42 40 c52 49 93 67 158 67
62 0 84 -11 107 -53 16 -28 18 -67 21 -289 l3 -258 55 0 55 0 -3 283 c-3 279
-3 282 -28 327 -34 62 -91 90 -180 90 -77 0 -129 -21 -189 -75 l-41 -37 0 56
0 56 -55 0 -55 0 0 -350z"/>
<path d="M1320 2974 l0 -60 50 -3 50 -2 0 63 0 63 -50 0 -50 0 0 -61z"/>
<path d="M1000 2891 c-46 -25 -69 -51 -85 -98 l-13 -38 -68 -3 c-77 -3 -104
-19 -104 -62 0 -60 1 -60 401 -60 288 0 369 3 383 13 24 17 24 62 1 87 -16 18
-32 20 -152 20 -119 0 -134 2 -139 18 -36 120 -130 172 -224 123z"/>
<path d="M4194 2686 c-3 -7 -4 -35 -2 -62 3 -52 -1 -50 81 -45 26 1 27 3 27
55 0 52 -1 54 -31 60 -48 9 -69 7 -75 -8z"/>
<path d="M720 2360 l0 -60 55 0 55 0 0 60 0 60 -55 0 -55 0 0 -60z"/>
<path d="M597 2073 c-2 -5 -2 -32 1 -60 l4 -53 49 0 49 0 0 60 0 60 -49 0
c-28 0 -52 -3 -54 -7z"/>
<path d="M600 1630 l0 -60 50 0 50 0 0 60 0 60 -50 0 -50 0 0 -60z"/>
<path d="M5030 1120 l0 -482 233 4 c213 4 237 6 291 27 106 42 166 130 166
245 0 104 -63 188 -165 223 l-48 16 29 15 c77 39 118 108 117 197 -1 105 -35
157 -133 204 -53 25 -62 26 -272 29 l-218 4 0 -482z m428 357 c99 -54 96 -201
-7 -261 -27 -16 -58 -20 -162 -24 l-129 -5 0 158 0 157 133 -4 c102 -3 139 -8
165 -21z m19 -402 c155 -46 162 -246 11 -309 -28 -12 -74 -16 -183 -16 l-145
0 0 170 0 170 133 0 c90 0 150 -5 184 -15z"/>
<path d="M8712 1188 c3 -447 4 -455 59 -505 29 -25 88 -43 147 -43 l43 0 -3
48 -3 47 -41 3 c-82 6 -79 -10 -82 453 l-3 409 -60 0 -60 0 3 -412z"/>
<path d="M7837 1419 c-59 -14 -95 -37 -113 -70 -14 -27 -19 -30 -42 -22 -15 4
-66 8 -113 8 -78 0 -90 -3 -135 -30 -30 -19 -60 -49 -79 -79 -26 -43 -30 -59
-30 -120 1 -76 16 -119 62 -168 l25 -26 -30 -16 c-80 -42 -83 -126 -7 -176
l26 -17 -35 -21 c-74 -44 -96 -130 -53 -207 33 -61 112 -96 225 -102 155 -9
271 28 325 103 73 103 33 230 -83 269 -29 10 -109 20 -190 25 -144 8 -170 16
-170 51 0 41 33 53 142 54 85 0 110 4 143 21 119 62 156 229 78 348 l-26 40
22 18 c13 9 45 20 72 24 l49 7 0 48 c0 53 0 53 -63 38z m-186 -175 c37 -19 69
-83 69 -139 0 -56 -32 -120 -69 -139 -65 -34 -158 -14 -197 42 -44 63 -21 196
40 233 38 23 115 25 157 3z m83 -590 c44 -21 60 -52 52 -98 -8 -43 -52 -82
-104 -93 -64 -13 -184 -8 -219 10 -78 41 -86 136 -15 180 38 24 237 24 286 1z"/>
<path d="M612 1391 c-9 -5 -12 -25 -10 -57 l3 -49 48 -3 47 -3 0 60 0 61 -37
0 c-21 0 -44 -4 -51 -9z"/>
<path d="M8210 1344 c-73 -15 -105 -29 -142 -62 -47 -42 -68 -85 -68 -137 l0
-35 54 0 53 0 6 38 c12 72 66 112 151 112 103 0 146 -44 146 -150 l0 -60 -57
0 c-181 -1 -325 -50 -365 -124 -36 -67 -25 -176 23 -231 82 -93 258 -85 374
16 l35 31 0 -51 0 -51 55 0 55 0 0 253 c0 328 -13 378 -113 426 -42 20 -158
34 -207 25z m200 -443 l0 -79 -42 -37 c-56 -49 -96 -65 -158 -65 -88 0 -130
40 -130 121 0 37 51 94 97 110 44 14 122 26 186 28 l47 1 0 -79z"/>
<path d="M9258 1337 c-78 -22 -149 -88 -183 -170 -24 -59 -35 -174 -24 -252
25 -175 120 -271 280 -283 135 -9 240 46 297 159 29 56 34 78 39 159 14 240
-92 384 -292 396 -41 2 -89 -2 -117 -9z m185 -102 c65 -31 107 -129 107 -250
0 -170 -70 -265 -197 -265 -79 0 -148 56 -174 141 -17 55 -14 207 6 264 18 52
56 101 90 115 33 14 135 11 168 -5z"/>
<path d="M5872 1068 c3 -252 5 -276 24 -318 28 -60 72 -96 134 -109 87 -19
170 5 243 69 l34 30 7 -50 7 -50 54 0 55 0 0 350 0 350 -60 0 -60 0 0 -254 0
-255 -43 -35 c-23 -19 -55 -40 -70 -45 -43 -17 -129 -13 -156 5 -46 33 -51 65
-51 334 l0 250 -61 0 -60 0 3 -272z"/>
<path d="M6620 990 l0 -350 55 0 55 0 0 249 0 249 43 37 c55 49 95 65 157 65
62 0 84 -11 107 -53 16 -28 18 -67 21 -289 l3 -258 55 0 55 0 -3 283 c-3 279
-3 282 -28 327 -34 62 -91 90 -180 90 -77 0 -129 -21 -189 -75 l-41 -37 0 56
0 56 -55 0 -55 0 0 -350z"/>
<path d="M9730 1333 c0 -6 116 -370 191 -600 l31 -93 62 0 61 0 84 280 c46
155 87 277 91 273 4 -4 31 -87 59 -183 29 -96 66 -219 82 -272 l30 -98 62 0
62 0 108 339 c59 187 107 344 107 350 0 7 -22 11 -53 11 l-54 0 -77 -267 c-43
-148 -81 -274 -85 -281 -4 -8 -41 98 -86 250 -43 145 -82 271 -87 281 -8 15
-20 17 -71 15 l-61 -3 -68 -225 c-37 -124 -75 -249 -83 -279 -9 -29 -18 -51
-20 -49 -5 4 -165 543 -165 553 0 3 -27 5 -60 5 -33 0 -60 -3 -60 -7z"/>
<path d="M613 1123 c-8 -3 -13 -25 -13 -59 l0 -55 48 3 47 3 3 58 3 57 -38 -1
c-21 0 -44 -3 -50 -6z"/>
<path d="M633 869 c-32 -9 -33 -11 -33 -64 l0 -55 50 0 51 0 -3 62 c-3 69 -9
74 -65 57z"/>
</g>
</svg>
